<?xml version="1.0" encoding="utf-8"?>
<!-- Generator: Adobe Illustrator 25.4.1, SVG Export Plug-In . SVG Version: 6.00 Build 0)  -->
<svg version="1.1" id="Layer_1" xmlns="http://www.w3.org/2000/svg" xmlns:xlink="http://www.w3.org/1999/xlink" x="0px" y="0px"
	 viewBox="0 0 13 13" style="enable-background:new 0 0 13 13;" xml:space="preserve">
<style type="text/css">
	.st0{fill:#FFFFFF;}
	.st1{fill:#0175FF;}
</style>
<g id="Layer_2_00000053540566136309642550000007341550414951653540_">
	<path class="st0" d="M6.5,0C2.9,0,0,2.9,0,6.5S2.9,13,6.5,13S13,10.1,13,6.5S10.1,0,6.5,0L6.5,0z"/>
</g>
<g id="Layer_1_00000032649735472626204630000007041270352591605430_">
</g>
<g id="Layer_2_00000061446147886235506000000010425959462884630665_">
	<path class="st1" d="M6.5,1c3,0,5.5,2.5,5.5,5.5S9.5,12,6.5,12S1,9.5,1,6.5S3.5,1,6.5,1 M6.5,0C2.9,0,0,2.9,0,6.5S2.9,13,6.5,13
		S13,10.1,13,6.5S10.1,0,6.5,0L6.5,0z"/>
	<circle class="st1" cx="6.5" cy="6.5" r="4"/>
</g>
</svg>
