<?xml version="1.0" encoding="utf-8"?>
<!-- Generator: Adobe Illustrator 25.4.1, SVG Export Plug-In . SVG Version: 6.00 Build 0)  -->
<svg version="1.1" id="Ebene_1" xmlns="http://www.w3.org/2000/svg" xmlns:xlink="http://www.w3.org/1999/xlink" x="0px" y="0px"
	 viewBox="0 0 100 100" style="enable-background:new 0 0 100 100;" xml:space="preserve">
<g>
	<path d="M17.9,90C10.7,90,5,72.1,5,50s5.7-40,12.9-40s12.9,17.9,12.9,40S24.9,90,17.9,90z"/>
</g>
<g>
	<path d="M50,90c-7.1,0-12.9-17.9-12.9-40S42.9,10,50,10s12.9,17.9,12.9,40S57.1,90,50,90z"/>
</g>
<g>
	<path d="M82.1,90C75,90,69.2,72.1,69.2,50S75,10,82.1,10S95,27.9,95,50S89.3,90,82.1,90z"/>
</g>
</svg>
