<?xml version="1.0" encoding="utf-8"?>
<!-- Generator: Adobe Illustrator 25.4.1, SVG Export Plug-In . SVG Version: 6.00 Build 0)  -->
<svg version="1.1" id="Ebene_1" xmlns="http://www.w3.org/2000/svg" xmlns:xlink="http://www.w3.org/1999/xlink" x="0px" y="0px"
	 viewBox="0 0 100 100" style="enable-background:new 0 0 100 100;" xml:space="preserve">
<g>
	<path d="M10,17.9C10,10.7,27.9,5,50,5s40,5.7,40,12.9S72.1,30.7,50,30.7S10,24.9,10,17.9z"/>
</g>
<g>
	<path d="M10,50c0-7.1,17.9-12.9,40-12.9S90,42.9,90,50S72.1,62.9,50,62.9S10,57.1,10,50z"/>
</g>
<g>
	<path d="M10,82.1c0-7.1,17.9-12.9,40-12.9s40,5.8,40,12.9C90,89.2,72.1,95,50,95S10,89.3,10,82.1z"/>
</g>
</svg>
